<?xml version="1.0" standalone="no"?>
<!DOCTYPE svg PUBLIC "-//W3C//DTD SVG 20010904//EN"
 "http://www.w3.org/TR/2001/REC-SVG-20010904/DTD/svg10.dtd">
<svg version="1.0" xmlns="http://www.w3.org/2000/svg"
 width="512.000000pt" height="512.000000pt" viewBox="0 0 512.000000 512.000000"
 preserveAspectRatio="xMidYMid meet">

<g transform="translate(0.000000,512.000000) scale(0.100000,-0.100000)"
fill="#000000" stroke="none">
<path d="M1812 4594 l-22 -15 0 -928 c0 -886 1 -929 18 -944 17 -16 84 -17
760 -17 l741 0 15 22 c14 20 16 126 16 940 0 905 0 918 -20 938 -20 20 -33 20
-753 20 -647 0 -735 -2 -755 -16z m1418 -944 l0 -860 -670 0 -670 0 0 853 c0
470 3 857 7 860 3 4 305 7 670 7 l663 0 0 -860z"/>
<path d="M2096 4288 c-14 -20 -16 -97 -16 -638 0 -541 2 -618 16 -638 l15 -22
453 0 c338 0 455 3 464 12 17 17 17 1279 0 1296 -9 9 -126 12 -464 12 l-453 0
-15 -22z m844 -638 l0 -560 -375 0 -375 0 0 560 0 560 375 0 375 0 0 -560z"/>
<path d="M532 4284 l-22 -15 0 -618 c0 -586 1 -619 18 -634 17 -15 67 -17 514
-17 449 0 497 2 509 17 12 13 14 125 14 635 0 602 -1 620 -19 634 -17 12 -102
14 -506 14 -423 0 -488 -2 -508 -16z m928 -634 l0 -550 -425 0 -425 0 0 543
c0 299 3 547 7 550 3 4 195 7 425 7 l418 0 0 -550z"/>
<path d="M782 3998 c-17 -17 -17 -679 0 -696 17 -17 479 -17 496 0 17 17 17
679 0 696 -17 17 -479 17 -496 0z m408 -348 l0 -260 -160 0 -160 0 0 260 0
260 160 0 160 0 0 -260z"/>
<path d="M3567 4282 c-15 -17 -17 -75 -17 -634 0 -583 1 -616 18 -631 17 -15
66 -17 506 -17 317 0 494 4 507 10 18 10 19 28 19 640 0 612 -1 630 -19 640
-13 6 -191 10 -509 10 -461 0 -490 -1 -505 -18z m933 -632 l0 -550 -425 0
-425 0 0 543 c0 299 3 547 7 550 3 4 195 7 425 7 l418 0 0 -550z"/>
<path d="M3832 3998 c-17 -17 -17 -679 0 -696 9 -9 78 -12 250 -12 224 0 238
1 248 19 6 13 10 140 10 345 0 282 -2 327 -16 340 -13 14 -50 16 -248 16 -167
0 -235 -3 -244 -12z m408 -348 l0 -260 -160 0 -160 0 0 260 0 260 160 0 160 0
0 -260z"/>
<path d="M1106 2515 c-125 -44 -194 -187 -151 -315 16 -49 67 -114 110 -139
19 -10 15 -16 -60 -87 -146 -138 -329 -275 -442 -333 -52 -26 -66 -62 -35 -93
27 -27 48 -21 157 47 126 79 264 186 367 284 l88 83 0 -676 0 -676 -302 -2
-303 -3 -10 -29 c-8 -24 -6 -31 14 -47 23 -19 75 -19 2027 -19 1991 0 2004 0
2024 20 23 23 25 39 8 63 -12 15 -45 17 -318 19 l-305 3 -3 674 -2 673 77 -73
c43 -40 124 -109 179 -153 107 -85 298 -206 325 -206 24 0 51 35 47 61 -2 15
-30 38 -96 78 -134 81 -252 172 -370 285 -89 86 -101 101 -85 109 38 20 76 64
99 112 61 128 3 279 -128 335 -183 79 -384 -88 -340 -281 14 -60 61 -131 102
-156 17 -9 30 -20 30 -24 0 -13 -142 -140 -232 -208 -238 -178 -492 -297 -752
-353 -136 -29 -417 -32 -549 -5 -317 64 -628 234 -921 504 l-67 62 28 14 c134
71 163 275 55 391 -63 67 -177 93 -266 61z m149 -105 c47 -23 85 -80 85 -129
0 -74 -73 -151 -144 -151 -125 0 -198 147 -119 241 50 59 110 72 178 39z
m2735 -2 c104 -54 107 -196 4 -255 -62 -36 -122 -27 -177 25 -74 71 -45 202
53 241 40 16 73 13 120 -11z m-2502 -666 c249 -190 529 -316 803 -363 160 -27
408 -23 564 11 339 72 688 260 968 519 l47 44 0 -672 0 -671 -1312 2 -1313 3
-3 668 -2 669 82 -74 c46 -40 120 -102 166 -136z"/>
</g>
</svg>
